<svg width="25" height="20" viewBox="0 0 25 20" fill="none" xmlns="http://www.w3.org/2000/svg">
<g id="arrow 2">
<g id="Group">
<g id="Group_2">
<path id="Vector" d="M23.7939 9.1958H1.00538C0.450104 9.1958 0 9.55612 0 10.0001C0 10.4441 0.450055 10.8044 1.00538 10.8044H23.7939C24.3492 10.8044 24.7993 10.4444 24.7993 10.0001C24.7993 9.55585 24.3492 9.1958 23.7939 9.1958Z" fill="white"/>
</g>
</g>
<g id="Group_3">
<g id="Group_4">
<path id="Vector_2" d="M24.7054 9.43112L14.853 1.54894C14.4602 1.23499 13.8242 1.23499 13.4314 1.54894C13.0386 1.86316 13.0386 2.37254 13.4314 2.68649L22.573 9.99999L13.4314 17.3135C13.0386 17.6275 13.0386 18.1369 13.4314 18.4508C13.6278 18.6079 13.8848 18.6865 14.1422 18.6865C14.3996 18.6865 14.6566 18.6079 14.853 18.4508L24.7054 10.5687C25.0982 10.2544 25.0982 9.74503 24.7054 9.43112Z" fill="white"/>
</g>
</g>
</g>
</svg>
